PathFileType	4	(X/Y/Z)	5_2_81_p0_0-150_filt_butterworth.trc
DataRate	CameraRate	NumFrames	NumMarkers	Units	OrigDataRate	OrigDataStartFrame	OrigNumFrames
59.0	59.0	5	27	m	59.0	93	150
Frame#	Time	RHip			RKnee			RAnkle			RBigToe			RSmallToe			RHeel			LHip			LKnee			LAnkle			LBigToe			LSmallToe			LHeel			Neck			Head			Nose			RShoulder			RElbow			RWrist			RThumb			RIndex			RPinky			LShoulder			LElbow			LWrist			LThumb			LIndex			LPinky			
		X1	Y1	Z1	X2	Y2	Z2	X3	Y3	Z3	X4	Y4	Z4	X5	Y5	Z5	X6	Y6	Z6	X7	Y7	Z7	X8	Y8	Z8	X9	Y9	Z9	X10	Y10	Z10	X11	Y11	Z11	X12	Y12	Z12	X13	Y13	Z13	X14	Y14	Z14	X15	Y15	Z15	X16	Y16	Z16	X17	Y17	Z17	X18	Y18	Z18	X19	Y19	Z19	X20	Y20	Z20	X21	Y21	Z21	X22	Y22	Z22	X23	Y23	Z23	X24	Y24	Z24	X25	Y25	Z25	X26	Y26	Z26	X27	Y27	Z27	
93	1.576271186440678	0.38061264139080286	0.8992833003699681	0.64186897255038	0.40262503460569726	0.44787575591739504	0.689726230063235	0.4286729830843789	0.010612259370348542	0.7427868214401984	0.3832575498445925	0.018996092475539003	0.5776614006138963	0.4425400485907529	0.027424952661871962	0.5769437497487275	0.41942153765407236	-0.05599108304200119	0.798176637588988	0.20230802444276236	0.8847676243098286	0.6074777915422711	0.21264116398146457	0.4296620109797802	0.6532163592948845	0.23022321349862238	-0.03761909027786151	0.7895186987477073	0.21651224087329557	0.0064269251319747644	0.540204894551664	0.16686880032221824	-0.0069542663987808145	0.6173963977095555	0.23792555748331654	-0.0942946115536881	0.8407787273220267	0.22409895651885825	1.3883428055679035	0.6229388597635064	0.19729738609993358	1.639909898117401	0.5905424928364168	0.24571046306463717	1.5078148789324977	0.5005826751609284	0.405211160411519	1.3248269780750688	0.6598997404193524	0.4497660956939637	1.0737477023941902	0.679549389637128	0.4861720576038709	0.8310340043299008	0.6469206722749405	0.43408385518502024	0.7290097977023314	0.5588709035558999	0.4482994636433696	0.7157628277267877	0.5614851383004285	0.4843813145646413	0.6880040126416294	0.6607876608984886	0.09527693582684693	1.2939696327137282	0.609284827154295	0.07000100309984299	1.0555508596683267	0.6842332082850475	0.04806985427878127	0.9571389459961663	0.45891544078010366	0.02240234313740256	0.9249922659350662	0.36802501897553574	-0.0008527913224073327	0.9154551436333901	0.3442396127092861	0.004777451024400044	0.8733238384104081	0.43637754242359844	
94	1.5932203389830508	0.38034544252012426	0.8993785527068955	0.6425371024983704	0.4030197225794474	0.44873652288298294	0.6885783760444419	0.42853996346310935	0.01137511737890684	0.7419649128598955	0.3832834954878852	0.018829225883678552	0.5779685207344929	0.44241184996145094	0.02807867478685379	0.5767477859329725	0.418625214745805	-0.05668778972801956	0.7987438385786556	0.2003417845945208	0.8845085005263433	0.60860572515317	0.21216152140992725	0.42921668684639547	0.6534773194911095	0.23010529561011148	-0.03813838069645572	0.789617182364402	0.21530331445863868	0.004227532210520829	0.5432272458270203	0.1671244672478694	-0.008901330430958906	0.6189261424475785	0.23799541148995174	-0.09462116938004259	0.8409914267314371	0.22424370341287955	1.388337347224155	0.6230379441673181	0.19882391489551235	1.6399998427017595	0.5900515684340196	0.24671754446470007	1.5068367301703538	0.5010078775893391	0.40573231536879817	1.3243630751508182	0.6591193432358907	0.4500692871117369	1.0715955886956823	0.6794698671269508	0.488463026293965	0.8303060884100153	0.6441191344280124	0.4358385822834479	0.7286533073521798	0.5581457213212965	0.45115201218296497	0.716514364656631	0.5607013433769978	0.4848402865398518	0.6881044296238441	0.6596213663388159	0.09512905880591313	1.2936129497339908	0.6092943087955199	0.07522196373717288	1.0507868392006288	0.6749727454725103	0.04366499292951538	0.9335432517398168	0.46747836300760237	0.012548119661061716	0.8959365207658996	0.3827719420216596	-0.009515192187035434	0.8826433833712221	0.3607655255952846	0.001349690399793091	0.8440183510071146	0.4476629993122608	
95	1.6101694915254237	0.3801392583081004	0.8997823079522208	0.6429699944729729	0.4034148348791689	0.4495521208326234	0.6874394690989237	0.428390172037651	0.012116853811665648	0.7410153313120834	0.3833188622177769	0.018666037489775855	0.5782878194537321	0.44245753615575917	0.028700680193399206	0.576697114536867	0.417789054343977	-0.057220973371020195	0.7991413334283333	0.19830204866182424	0.8843154968099128	0.6097425704860676	0.21170838265492184	0.4285777808341603	0.6540303376966863	0.23007233761485477	-0.038783771636872064	0.7898161690355144	0.21423041822974392	0.0017852449114543617	0.5457577186182497	0.1673265772652122	-0.011601990967184658	0.6208689686484467	0.2380868903426151	-0.0949660942829404	0.8412456461249831	0.22423956740191925	1.3883166111449878	0.6230539359066948	0.20107556795368048	1.64010009679763	0.588868557175072	0.24812956186681168	1.5060772580327373	0.5014852940210981	0.4065926580512893	1.323905625432934	0.6574468966026034	0.4503773803569557	1.0692473425665425	0.6795878229067969	0.4904025171758345	0.8294554842633497	0.6417691684966602	0.4387008199952732	0.728404909472186	0.5567531048680554	0.45471902832020633	0.71717649714378	0.5593720979322571	0.48576737705954054	0.68879844255023	0.6577700138125485	0.09490026838817599	1.293176772345798	0.6095533334103342	0.0808456523771388	1.0461959081595809	0.6636592712699476	0.03904887639316944	0.9102910869953642	0.47878066033430056	0.004141605735718158	0.8669171271563703	0.40090126585450736	-0.01702367616322002	0.8514603287886653	0.3790796427271101	-0.0010889402438682585	0.81602779702305	0.4585805810698569	
96	1.6271186440677967	0.3800096732622451	0.9002915534129327	0.643186688692229	0.4037557237797032	0.4501709081886014	0.6864510207965953	0.4282251102357876	0.012802763422113728	0.7399669365223022	0.3833010356665497	0.018677684211137663	0.578273917503351	0.4426267829591123	0.02899367908374588	0.5768732967733136	0.4169719092078625	-0.05758206761327934	0.7993940240542496	0.1962671311092281	0.8840898497126497	0.6109062126798911	0.21127995577664638	0.4277759181640637	0.6547036747646557	0.23012271065097373	-0.03947289372681382	0.7900894811671889	0.21343418488610838	-0.0006935432706646621	0.5479261288115437	0.16747994676892242	-0.014521126240954627	0.6225328654224684	0.23818503825428555	-0.09526706295865318	0.8415080130205007	0.22422224557651743	1.3882933972465397	0.6230348816210242	0.2038975512045734	1.6401644667650412	0.5871158141837325	0.2496866762030265	1.5055413520994831	0.5018780338738074	0.40786898733527227	1.3235392866269866	0.6551325959353275	0.4506494315919053	1.066938047443194	0.6798734506153663	0.491817444334567	0.828510944084192	0.6399308383497537	0.4424458272639651	0.7280783364356367	0.5549470107776909	0.45887743512298895	0.7174163270178769	0.5579021686717281	0.4870480556249749	0.6898299012508589	0.655476500661947	0.09472916529467817	1.29294305514853	0.6098434743408576	0.08622121244269418	1.0419057578386381	0.6514872657813708	0.03479120803410894	0.8883332811904189	0.49219411508140376	-0.0022350874881788196	0.8383317927115093	0.42029553827287036	-0.023425552407391123	0.8221285152720089	0.39899562784387954	-0.004596527710507868	0.7898175246107038	0.47068414708982165	
97	1.6440677966101696	0.37994196072263114	0.9007226084069984	0.6432699391479397	0.4039792510461607	0.450504667059085	0.6857562360952024	0.4280513938718583	0.013434163369534152	0.7388399890156566	0.3831716238571051	0.019020871940915368	0.5776269688634694	0.4426084644472044	0.028998513532489806	0.5769976351541	0.41625168681125163	-0.05773819501574718	0.7994591968804303	0.19429913272868482	0.8837334492791389	0.6120480741891354	0.21085884662640889	0.42685504982564043	0.6553549938072982	0.23024721660118136	-0.040131165106423755	0.7904083562756622	0.21300149056143255	-0.0030568578203267194	0.5496330507290608	0.16759310239006728	-0.01718216591922478	0.6235620788239716	0.23827508572504008	-0.0955467890832883	0.841772995119449	0.2242372086138193	1.3882690491890282	0.6230523236481832	0.20701615502886378	1.6401546250704087	0.5849933877765011	0.2511213905321252	1.5051862544350472	0.502296167852098	0.4095012445348464	1.3232462522409196	0.6525932175284355	0.450768733306655	1.0647989500033124	0.6802866562859716	0.492758078146039	0.8274997646596918	0.638251236598495	0.4466584615037031	0.7274969306129943	0.5529741257498029	0.46322341071433537	0.7170180618171127	0.5565135812427056	0.48865478319074995	0.6909242725007894	0.6532044776054777	0.09484434095406685	1.2930916262992496	0.6097038251888376	0.09084972350085593	1.0381967993132692	0.6393138892648929	0.031530994018382386	0.8681657074046848	0.5063119050568526	-0.006324360071086008	0.81140874573548	0.4381620554050787	-0.028935556537600396	0.7946542822975559	0.42071484650706115	-0.010568028685534985	0.7657574502531241	0.48537359365626404	
